<?xml version="1.0" encoding="utf-8"?>
<!-- Generator: Adobe Illustrator 18.0.0, SVG Export Plug-In . SVG Version: 6.00 Build 0)  -->
<!DOCTYPE svg PUBLIC "-//W3C//DTD SVG 1.1//EN" "http://www.w3.org/Graphics/SVG/1.1/DTD/svg11.dtd">
<svg version="1.1" id="Layer_1" xmlns="http://www.w3.org/2000/svg" xmlns:xlink="http://www.w3.org/1999/xlink" x="0px" y="0px"
	 width="720px" height="934px" viewBox="64.5 -234.5 720 934" enable-background="new 64.5 -234.5 720 934" xml:space="preserve">
<g id="XMLID_2_">
	<path fill="#FFFFFF" d="M628.6-24.2H627v656.9c0,26.5-21.5,48-48,48H244c-26.5,0-48-21.5-48-48v-804.3c0-26.5,21.5-48,48-48h334.9
		c26.5,0,48,21.5,48,48v91.4h1.6c2.7,0,4.8,2.2,4.8,4.8v46.4C633.4-26.3,631.3-24.2,628.6-24.2z M205.8-126.7v710.6
		c0,3.6,3,6.5,6.5,6.5h395.8c3.6,0,6.5-3,6.5-6.5v-710.6c0-3.6-3-6.5-6.5-6.5H212.3C208.8-133.2,206-130.4,205.8-126.7z"/>
	<path id="XMLID_43_" fill="#F2F6F7" d="M358.6-172h112.1c2.6,0,4.6,2,4.6,4.6v0.3c0,2.6-2,4.6-4.6,4.6H358.6c-2.6,0-4.6-2-4.6-4.6
		v-0.3C354-169.9,356-172,358.6-172z"/>
	<path id="XMLID_29_" fill="#F2F6F7" d="M414.8-196.2c3,0,5.4,2.4,5.4,5.4c0,3-2.4,5.4-5.4,5.4s-5.4-2.4-5.4-5.4
		C409.5-193.8,411.9-196.2,414.8-196.2z"/>
	<path id="XMLID_17_" fill="#F2F6F7" stroke="#FFFFFF" stroke-width="2" d="M414.7,600.7c18.2,0,32.8,14.7,32.8,32.8
		s-14.7,32.8-32.8,32.8c-18.2,0-32.8-14.7-32.8-32.8S396.5,600.7,414.7,600.7z"/>
</g>
<image overflow="visible" enable-background="new    " width="431" height="559" id="_x31_4365340_x5F_10208667707708978_x5F_1523879532_x5F_n1" xlink:href="6E9308E1F9966F5F.png"  transform="matrix(0.9511 0 0 0.9511 219.5371 -33.3335)">
</image>
</svg>
