<?xml version="1.0" encoding="utf-8"?>
<!-- Generator: Adobe Illustrator 18.0.0, SVG Export Plug-In . SVG Version: 6.00 Build 0)  -->
<!DOCTYPE svg PUBLIC "-//W3C//DTD SVG 1.1//EN" "http://www.w3.org/Graphics/SVG/1.1/DTD/svg11.dtd">
<svg version="1.1" id="Layer_1" xmlns:sketch="http://www.bohemiancoding.com/sketch/ns"
	 xmlns="http://www.w3.org/2000/svg" xmlns:xlink="http://www.w3.org/1999/xlink" x="0px" y="0px" width="2296px" height="180px"
	 viewBox="0 0 2296 180" enable-background="new 0 0 2296 180" xml:space="preserve">
<title>Artboard 2</title>
<desc>Created with Sketch.</desc>
<g sketch:type="MSPage">
	<g sketch:type="MSArtboardGroup">
		<g sketch:type="MSLayerGroup">
			<path sketch:type="MSShapeGroup" fill="#FFFFFF" d="M0.2,144c171.9-0.4,452.7-10.2,645.8-63C942-0.1,1148,4,1148,4v177H0.7
				C0.7,181-91.3,144.2,0.2,144z"/>
			<path sketch:type="MSShapeGroup" fill="#FFFFFF" d="M646,81C942-0.1,1148,4,1148,4"/>
		</g>
		<g sketch:type="MSLayerGroup">
			<path sketch:type="MSShapeGroup" fill="#FFFFFF" d="M2295.8,144c-171.9-0.4-452.7-10.2-645.8-63C1354-0.1,1148,4,1148,4v177
				h1147.3C2295.3,181,2387.3,144.2,2295.8,144z"/>
			<path sketch:type="MSShapeGroup" fill="#FFFFFF" d="M1650,81C1354-0.1,1148,4,1148,4"/>
		</g>
	</g>
</g>
</svg>
