<?xml version="1.0" encoding="utf-8"?>
<!-- Generator: Adobe Illustrator 18.0.0, SVG Export Plug-In . SVG Version: 6.00 Build 0)  -->
<!DOCTYPE svg PUBLIC "-//W3C//DTD SVG 1.1//EN" "http://www.w3.org/Graphics/SVG/1.1/DTD/svg11.dtd">
<svg version="1.1" id="Layer_1" xmlns="http://www.w3.org/2000/svg" xmlns:xlink="http://www.w3.org/1999/xlink" x="0px" y="0px"
	 width="550px" height="550px" viewBox="0 0 550 550" enable-background="new 0 0 550 550" xml:space="preserve">
<path fill="#FFFFFF" d="M85.2,298.4c0,5.4-4.3,9.7-9.7,9.7c-5.4,0-9.7-4.3-9.7-9.7v-40.8c0-5.4,4.3-9.7,9.7-9.7
	c5.4,0,9.7,4.3,9.7,9.7V298.4z"/>
<path fill="#FFFFFF" d="M175.9,312.6c0,5.8-4.7,10.5-10.5,10.5h-7v21.5c0,5.4-4.3,9.7-9.7,9.7s-9.7-4.3-9.7-9.7v-21.5h-13v21.5
	c0,5.4-4.3,9.7-9.7,9.7c-5.4,0-9.7-4.3-9.7-9.7v-21.5h-7.2c-5.8,0-10.5-4.7-10.5-10.5v-63.2h87.2V312.6z"/>
<path fill="#FFFFFF" d="M199.2,298.4c0,5.4-4.3,9.7-9.7,9.7s-9.7-4.3-9.7-9.7v-40.8c0-5.4,4.3-9.7,9.7-9.7s9.7,4.3,9.7,9.7V298.4z"
	/>
<path fill="#FFFFFF" d="M423.3,208.7c2.9-3.2,6.5-6,10.8-8.1c4.3-2.2,8.5-3.2,12.3-3.4c0.2,1.1,0.2,2,0.2,3.1
	c0,7.6-2.7,14.8-8.3,21.3c-6.7,7.8-14.8,12.5-23.6,11.7c-0.2-0.9-0.2-1.8-0.2-2.9C414.5,222.9,417.7,215.2,423.3,208.7z"/>
<path fill="#FFFFFF" d="M476,316.1c-2.3,5.4-5.1,10.3-8.1,14.8c-4.3,6.1-7.8,10.5-10.6,12.8c-4.2,4-8.7,6-13.5,6
	c-3.4,0-7.8-0.9-12.6-3.1c-4.9-2-9.4-3.1-13.5-3.1c-4.3,0-9,0.9-13.9,3.1c-4.9,2-9,3.1-12.1,3.1c-4.7,0.2-9.2-1.8-13.9-6.1
	c-2.9-2.5-6.7-7-11-13.2c-4.7-6.7-8.7-14.4-11.7-23.3c-3.2-9.6-4.9-18.8-4.9-27.6c0-10.3,2.2-19.1,6.7-26.5
	c3.4-6,8.1-10.6,13.9-14.1c5.8-3.4,12.1-5.2,18.8-5.2c3.6,0,8.5,1.1,14.6,3.4c6,2.2,9.9,3.4,11.5,3.4c1.3,0,5.6-1.3,12.8-4
	c6.9-2.5,12.6-3.4,17.3-3.1c12.8,1.1,22.6,6.1,28.9,15.2c-11.5,7-17.1,16.8-17.1,29.2c0.2,9.7,3.6,17.9,10.6,24.4
	c3.1,3.1,6.7,5.2,10.6,6.9C477.8,311.4,476.9,313.9,476,316.1z"/>
<path fill="#FFFFFF" d="M111,211l-6.9-12.5c-0.4-0.7-0.2-1.4,0.5-1.8c0.7-0.4,1.4-0.2,1.8,0.5l7,12.6c5.8-2.5,12.1-4,18.9-4
	s13.2,1.4,18.9,4l7-12.6c0.2-0.5,0.7-0.7,1.3-0.7c0.2,0,0.5,0,0.7,0.2c0.7,0.4,0.9,1.3,0.5,1.8l-6.9,12.5c13.2,6.9,22.2,20,22.2,35
	H88.8C88.8,231.1,97.6,217.9,111,211z M152.7,229.8c1.9,0,3.5-1.6,3.5-3.5s-1.6-3.5-3.5-3.5c-1.9,0-3.5,1.6-3.5,3.5
	S150.7,229.8,152.7,229.8z M112.2,229.8c1.9,0,3.5-1.6,3.5-3.5s-1.6-3.5-3.5-3.5c-1.9,0-3.5,1.6-3.5,3.5S110.3,229.8,112.2,229.8z"
	/>
</svg>
