<?xml version="1.0" encoding="utf-8"?>
<!-- Generator: Adobe Illustrator 18.0.0, SVG Export Plug-In . SVG Version: 6.00 Build 0)  -->
<!DOCTYPE svg PUBLIC "-//W3C//DTD SVG 1.1//EN" "http://www.w3.org/Graphics/SVG/1.1/DTD/svg11.dtd">
<svg version="1.1" id="Layer_1" xmlns="http://www.w3.org/2000/svg" xmlns:xlink="http://www.w3.org/1999/xlink" x="0px" y="0px"
	 width="240.4px" height="56.5px" viewBox="81 620.3 240.4 56.5" enable-background="new 81 620.3 240.4 56.5" xml:space="preserve"
	>
<g>
	<path fill="#FFFFFF" d="M153.9,639.8h5.2l1.8,6.3l1.8-6.3h5.2l-3.4,9.8l1.5,4.3l4.4-14.1h6.1l-8,20.5h-4.7l-2.9-7.3l-2.9,7.3h-4.7
		l-8-20.5h6.1l4.4,14.1l1.4-4.3L153.9,639.8z"/>
	<path fill="#FFFFFF" d="M183.2,660.7c-1.4,0-2.6-0.2-3.6-0.7c-1-0.4-1.9-1-2.6-1.7c-0.7-0.7-1.2-1.6-1.6-2.5c-0.4-1-0.5-1.9-0.5-3
		c0-1,0.2-2,0.5-3c0.4-1,0.9-1.8,1.6-2.5c0.7-0.7,1.6-1.3,2.6-1.7s2.2-0.6,3.6-0.6c1.3,0,2.5,0.2,3.6,0.6c1,0.4,1.9,1,2.6,1.7
		c0.7,0.7,1.2,1.6,1.6,2.5c0.4,1,0.5,2,0.5,3s-0.2,2-0.5,3c-0.4,1-0.9,1.8-1.6,2.5c-0.7,0.7-1.6,1.3-2.6,1.7
		C185.7,660.4,184.5,660.7,183.2,660.7z M180.5,652.8c0,1,0.2,1.8,0.8,2.4c0.5,0.6,1.1,0.9,1.9,0.9c0.8,0,1.4-0.3,1.9-0.9
		s0.8-1.4,0.8-2.4s-0.2-1.8-0.8-2.4c-0.5-0.6-1.1-0.9-1.9-0.9c-0.8,0-1.4,0.3-1.9,0.9C180.8,650.9,180.5,651.7,180.5,652.8z"/>
	<path fill="#FFFFFF" d="M193.4,639.3h5.5V654c0,1.2,0.5,1.7,1.4,1.7c0.2,0,0.5,0,0.8-0.1s0.5-0.2,0.8-0.3l0.7,4.4
		c-0.7,0.3-1.4,0.6-2.2,0.7c-0.8,0.2-1.6,0.3-2.3,0.3c-1.5,0-2.6-0.4-3.4-1.1c-0.8-0.8-1.2-1.8-1.2-3.3v-17H193.4z"/>
	<path fill="#FFFFFF" d="M204.7,660.4v-9.3h-1.9V647h1.9v-1.6c0-0.9,0.1-1.8,0.4-2.6c0.3-0.8,0.6-1.4,1.1-2c0.5-0.5,1.1-1,1.7-1.3
		c0.7-0.3,1.4-0.4,2.3-0.4c1.3,0,2.7,0.3,4.2,0.9l-0.9,4.2c-0.3-0.1-0.7-0.2-1.1-0.3c-0.4-0.1-0.7-0.1-1-0.1c-0.9,0-1.3,0.5-1.3,1.5
		v1.8h3.3v4.1h-3.3v9.3h-5.4V660.4z"/>
	<path fill="#FFFFFF" d="M233.2,655.1c0,0.9-0.2,1.7-0.6,2.4c-0.4,0.7-0.9,1.2-1.6,1.6c-0.7,0.4-1.5,0.7-2.4,0.9s-1.8,0.3-2.8,0.3
		h-10.1v-20.5h11.9c0.7,0,1.4,0.2,1.9,0.5c0.6,0.3,1.1,0.7,1.5,1.2s0.7,1.1,0.9,1.7c0.2,0.6,0.3,1.3,0.3,1.9c0,1-0.2,1.9-0.7,2.8
		c-0.5,0.9-1.2,1.5-2.2,2c1.2,0.3,2.1,1,2.8,1.8C232.9,652.5,233.2,653.7,233.2,655.1z M221.4,644.6v3.2h3.8c0.4,0,0.7-0.1,1.1-0.3
		c0.3-0.2,0.5-0.6,0.5-1.3c0-0.6-0.1-1-0.4-1.2c-0.3-0.2-0.6-0.4-1-0.4H221.4z M227.5,653.9c0-0.5-0.1-0.9-0.4-1.3
		c-0.3-0.3-0.6-0.5-1-0.5h-4.7v3.4h4.4c0.5,0,0.9-0.1,1.2-0.4C227.3,654.9,227.5,654.5,227.5,653.9z"/>
	<path fill="#FFFFFF" d="M242.6,660.7c-1.3,0-2.5-0.2-3.6-0.6c-1-0.4-1.9-1-2.6-1.7s-1.2-1.5-1.6-2.5c-0.4-0.9-0.6-1.9-0.6-2.9
		c0-1.1,0.2-2.1,0.5-3.1c0.4-1,0.9-1.8,1.6-2.6c0.7-0.7,1.6-1.3,2.6-1.7s2.2-0.6,3.6-0.6c1.3,0,2.5,0.2,3.6,0.6c1,0.4,1.9,1,2.6,1.7
		c0.7,0.7,1.2,1.6,1.6,2.5c0.4,1,0.5,2,0.5,3c0,0.3,0,0.6,0,0.9c0,0.3-0.1,0.6-0.1,0.8H240c0.1,0.8,0.4,1.4,0.9,1.7
		c0.5,0.4,1.1,0.5,1.8,0.5c0.6,0,1.2-0.1,1.7-0.4c0.5-0.3,0.9-0.6,1.1-1.1l4.7,1.3c-0.6,1.2-1.6,2.2-2.8,3
		C246.1,660.3,244.5,660.7,242.6,660.7z M245.1,651.1c-0.1-0.7-0.4-1.3-0.8-1.7c-0.4-0.4-1-0.6-1.7-0.6s-1.3,0.2-1.7,0.6
		c-0.4,0.4-0.7,1-0.8,1.7H245.1z"/>
	<path fill="#FFFFFF" d="M257.3,660.7c-0.8,0-1.5-0.1-2.1-0.4c-0.7-0.2-1.2-0.6-1.7-1s-0.8-0.9-1.1-1.5s-0.4-1.2-0.4-1.9
		c0-0.8,0.2-1.5,0.5-2.1s0.8-1.2,1.4-1.6c0.6-0.5,1.3-0.8,2.1-1.1c0.8-0.2,1.7-0.4,2.6-0.4c1.2,0,2.3,0.2,3.1,0.6v-0.5
		c0-0.7-0.2-1.2-0.6-1.6c-0.4-0.3-1.1-0.5-2-0.5s-1.7,0.1-2.4,0.4c-0.7,0.3-1.5,0.7-2.3,1.2l-1.6-3.4c2-1.3,4.3-1.9,6.9-1.9
		c2.4,0,4.3,0.5,5.6,1.6s2,2.7,2,4.9v2.9c0,0.5,0.1,0.9,0.3,1.1c0.2,0.2,0.5,0.3,1,0.4v4.6c-0.5,0.1-1,0.2-1.4,0.2s-0.8,0.1-1.2,0.1
		c-1,0-1.7-0.2-2.2-0.5c-0.5-0.4-0.8-0.9-1-1.6l-0.4-0.7c-0.7,0.9-1.5,1.5-2.3,2C259.2,660.4,258.3,660.7,257.3,660.7z M258.9,656.7
		c0.3,0,0.7-0.1,1-0.2c0.3-0.1,0.7-0.2,0.9-0.4c0.2-0.2,0.4-0.3,0.5-0.5s0.2-0.4,0.2-0.6v-1.1c-0.3-0.1-0.7-0.2-1.1-0.3
		s-0.7-0.1-1-0.1c-0.7,0-1.2,0.2-1.7,0.5c-0.4,0.3-0.7,0.7-0.7,1.2c0,0.4,0.2,0.8,0.5,1C258,656.6,258.4,656.7,258.9,656.7z"/>
	<path fill="#FFFFFF" d="M269.4,652.8c0-1,0.2-2,0.6-3s0.9-1.8,1.6-2.5s1.6-1.3,2.6-1.7s2.2-0.6,3.6-0.6c1.8,0,3.4,0.4,4.6,1.2
		s2.2,1.8,2.8,3l-5.3,1.6c-0.5-0.8-1.2-1.1-2.1-1.1c-0.8,0-1.4,0.3-1.9,0.9c-0.5,0.6-0.8,1.4-0.8,2.4s0.3,1.8,0.8,2.4
		c0.5,0.6,1.2,0.9,1.9,0.9c0.9,0,1.6-0.4,2.1-1.1l5.3,1.6c-0.6,1.2-1.5,2.2-2.8,3c-1.2,0.8-2.8,1.2-4.6,1.2c-1.3,0-2.5-0.2-3.6-0.7
		c-1-0.4-1.9-1-2.6-1.7s-1.2-1.6-1.6-2.5C269.6,654.8,269.4,653.8,269.4,652.8z"/>
	<path fill="#FFFFFF" d="M294.2,660.7c-1.4,0-2.6-0.2-3.6-0.7c-1-0.4-1.9-1-2.6-1.7s-1.2-1.6-1.6-2.5c-0.4-1-0.5-1.9-0.5-3
		c0-1,0.2-2,0.5-3c0.4-1,0.9-1.8,1.6-2.5s1.6-1.3,2.6-1.7s2.2-0.6,3.6-0.6c1.3,0,2.5,0.2,3.6,0.6s1.9,1,2.6,1.7s1.2,1.6,1.6,2.5
		c0.4,1,0.5,2,0.5,3s-0.2,2-0.5,3c-0.4,1-0.9,1.8-1.6,2.5s-1.6,1.3-2.6,1.7S295.6,660.7,294.2,660.7z M291.5,652.8
		c0,1,0.2,1.8,0.8,2.4s1.1,0.9,1.9,0.9s1.4-0.3,1.9-0.9s0.8-1.4,0.8-2.4s-0.2-1.8-0.8-2.4c-0.5-0.6-1.1-0.9-1.9-0.9
		s-1.4,0.3-1.9,0.9C291.8,650.9,291.5,651.7,291.5,652.8z"/>
	<path fill="#FFFFFF" d="M319.8,660.4h-5.5v-8.6c0-0.8-0.2-1.3-0.5-1.6s-0.7-0.5-1.2-0.5s-1,0.2-1.5,0.6c-0.5,0.4-0.9,0.9-1.2,1.6
		v8.5h-5.5v-15.2h4.9v2.3c0.5-0.8,1.3-1.5,2.3-1.9s2.1-0.6,3.5-0.6c1,0,1.9,0.2,2.5,0.6c0.6,0.4,1.1,0.8,1.4,1.4
		c0.3,0.6,0.5,1.2,0.6,1.8s0.1,1.2,0.1,1.7v9.9H319.8z"/>
</g>
<path fill="#FFFFFF" d="M101.3,622.6h24.3c6.6,0,12,5.4,12,12v24.3c0,6.6-5.4,12-12,12h-24.3c-6.6,0-12-5.4-12-12v-24.3
	C89.3,627.9,94.7,622.6,101.3,622.6z M131,634.2c-0.6,0.3-2.5-0.9-2.5-0.9s-0.2,2-0.8,2.2c0.4-3.3-0.6-6.8-4-8.5
	c-0.4,0.4-1.3,1.4-1.7,1.8c-2.5,2.9-4.8,5.7-7.4,8.4c-0.9,1-1.6,1.1-2.8,1.6c-0.3,0.1-0.8,0.2-1.2,0.2c-0.5,0.1-1,0.3-1.5,0.5
	c-1.2,0.4-2.1,1.3-2.8,2c-2.6,2.6-3.4,3.5-6.9,4.6c-1.3,0.4-4,2-5.5,2.9c-0.3,0.1-0.4,0.3-0.4,0.6c0,0.2,0.2,0.5,0.4,0.6
	c1.5,0.9,3.4,1.9,4.8,2.7c0.4,0.3,1.2,0.8,1.1,1.1c-1.1,2.5-1.1,4.1-1.8,6.1c-0.9,2.4-2.4,5.7-3.3,8.8c1.9,1.3,4.2,2,6.6,2h24.3
	c0.6,0,1.2-0.1,1.7-0.1c0.1-0.3,0.2-0.7,0.2-1.2c0-1.9-0.2-4,0.6-5.5c0.8-1.7,0.3-2.8-0.3-4.1c-1.3-2.5-1.6-5.1-1.1-7.8
	c0.4-2.5,1.2-5,2.2-7.3c0.7-1.7,1.9-3.4,3.1-4.9c1.1-1.3,1.7-2.5,1.3-4.1C133.1,634.8,132.7,633.5,131,634.2z"/>
</svg>
