<?xml version="1.0" encoding="utf-8"?>
<!-- Generator: Adobe Illustrator 18.0.0, SVG Export Plug-In . SVG Version: 6.00 Build 0)  -->
<!DOCTYPE svg PUBLIC "-//W3C//DTD SVG 1.1//EN" "http://www.w3.org/Graphics/SVG/1.1/DTD/svg11.dtd">
<svg version="1.1" id="Layer_1" xmlns="http://www.w3.org/2000/svg" xmlns:xlink="http://www.w3.org/1999/xlink" x="0px" y="0px"
	 width="304.8px" height="148.3px" viewBox="122.6 200.9 304.8 148.3" enable-background="new 122.6 200.9 304.8 148.3"
	 xml:space="preserve">
<path fill="#FFFFFF" d="M153.7,294.4c0,4.6-3.7,8.2-8.2,8.2c-4.6,0-8.2-3.7-8.2-8.2v-34.5c0-4.6,3.7-8.2,8.2-8.2
	c4.6,0,8.2,3.7,8.2,8.2V294.4z"/>
<path fill="#FFFFFF" d="M230.5,306.4c0,4.9-4,8.9-8.9,8.9h-6v18.2c0,4.6-3.7,8.2-8.2,8.2c-4.6,0-8.2-3.7-8.2-8.2v-18.2h-11v18.2
	c0,4.6-3.7,8.2-8.2,8.2c-4.6,0-8.2-3.7-8.2-8.2v-18.2h-6.1c-4.9,0-8.9-4-8.9-8.9V253h73.7V306.4z"/>
<path fill="#FFFFFF" d="M250.2,294.4c0,4.6-3.7,8.2-8.2,8.2s-8.2-3.7-8.2-8.2v-34.5c0-4.6,3.7-8.2,8.2-8.2s8.2,3.7,8.2,8.2V294.4z"
	/>
<g>
	<path fill="#FFFFFF" d="M365.9,219.8c2.4-2.7,5.5-5,9.2-6.9c3.7-1.8,7.2-2.7,10.4-2.9c0.2,0.9,0.2,1.7,0.2,2.6c0,6.4-2.3,12.5-7,18
		c-5.6,6.6-12.5,10.5-20,9.9c-0.2-0.8-0.2-1.5-0.2-2.4C358.4,231.9,361.2,225.3,365.9,219.8z"/>
	<path fill="#FFFFFF" d="M410.5,310.6c-2,4.6-4.3,8.7-6.9,12.5c-3.7,5.2-6.6,8.9-9,10.8c-3.5,3.4-7.3,5-11.4,5
		c-2.9,0-6.6-0.8-10.7-2.6c-4.1-1.7-7.9-2.6-11.4-2.6c-3.7,0-7.6,0.8-11.8,2.6c-4.1,1.7-7.6,2.6-10.2,2.6c-4,0.2-7.8-1.5-11.8-5.2
		c-2.4-2.1-5.6-6-9.3-11.1c-4-5.6-7.3-12.2-9.9-19.7c-2.7-8.1-4.1-15.9-4.1-23.4c0-8.7,1.8-16.2,5.6-22.4c2.9-5,6.9-9,11.8-11.9
		c4.9-2.9,10.2-4.4,15.9-4.4c3.1,0,7.2,0.9,12.4,2.9c5,1.8,8.4,2.9,9.8,2.9c1.1,0,4.7-1.1,10.8-3.4c5.8-2.1,10.7-2.9,14.7-2.6
		c10.8,0.9,19.1,5.2,24.4,12.8c-9.8,6-14.5,14.2-14.5,24.7c0.2,8.2,3.1,15.1,9,20.6c2.6,2.6,5.6,4.4,9,5.8
		C412,306.7,411.2,308.8,410.5,310.6z"/>
</g>
<path fill="#FFFFFF" d="M175.6,220.5l-5.8-10.5c-0.3-0.6-0.2-1.2,0.5-1.5c0.6-0.3,1.2-0.2,1.5,0.5l6,10.7c4.9-2.1,10.2-3.4,16-3.4
	s11.1,1.2,16,3.4l6-10.7c0.2-0.5,0.6-0.6,1.1-0.6c0.2,0,0.5,0,0.6,0.2c0.6,0.3,0.8,1.1,0.5,1.5l-5.8,10.5
	c11.1,5.8,18.8,16.9,18.8,29.6h-74C156.8,237.4,164.3,226.3,175.6,220.5z M175,234.5c-1.7,0-3.1,1.4-3.1,3.1s1.4,3.1,3.1,3.1
	s3.1-1.4,3.1-3.1S176.7,234.5,175,234.5z M212.6,234.5c-1.7,0-3.1,1.4-3.1,3.1c0,1.7,1.4,3.1,3.1,3.1s3.1-1.4,3.1-3.1
	C215.6,235.9,214.2,234.5,212.6,234.5z"/>
</svg>
